<mxfile host="app.diagrams.net" modified="2023-09-03T19:54:00.133Z" agent="Mozilla/5.0 (Windows NT 10.0; Win64; x64; rv:109.0) Gecko/20100101 Firefox/117.0" etag="mRCHIrnohnvvNbYZuYl6" version="21.6.8" type="github">
  <diagram name="Page-1" id="iOP9NucEH-zzFqvL8uEB">
    <mxGraphModel dx="1562" dy="826" grid="1" gridSize="10" guides="1" tooltips="1" connect="1" arrows="1" fold="1" page="1" pageScale="1" pageWidth="850" pageHeight="1100" math="0" shadow="0">
      <root>
        <mxCell id="0" />
        <mxCell id="1" parent="0" />
        <mxCell id="ymEb2g0kcDg-jAVKu9gT-69" value="" style="edgeStyle=orthogonalEdgeStyle;rounded=0;orthogonalLoop=1;jettySize=auto;html=1;entryX=0;entryY=0.5;entryDx=0;entryDy=0;startArrow=classic;startFill=1;" edge="1" parent="1" source="ymEb2g0kcDg-jAVKu9gT-15" target="ymEb2g0kcDg-jAVKu9gT-38">
          <mxGeometry relative="1" as="geometry" />
        </mxCell>
        <mxCell id="ymEb2g0kcDg-jAVKu9gT-70" style="edgeStyle=orthogonalEdgeStyle;rounded=0;orthogonalLoop=1;jettySize=auto;html=1;entryX=0;entryY=0.5;entryDx=0;entryDy=0;startArrow=classic;startFill=1;" edge="1" parent="1" source="ymEb2g0kcDg-jAVKu9gT-15" target="ymEb2g0kcDg-jAVKu9gT-24">
          <mxGeometry relative="1" as="geometry" />
        </mxCell>
        <mxCell id="ymEb2g0kcDg-jAVKu9gT-71" style="edgeStyle=orthogonalEdgeStyle;rounded=0;orthogonalLoop=1;jettySize=auto;html=1;entryX=0;entryY=0.5;entryDx=0;entryDy=0;" edge="1" parent="1" source="ymEb2g0kcDg-jAVKu9gT-15" target="ymEb2g0kcDg-jAVKu9gT-41">
          <mxGeometry relative="1" as="geometry" />
        </mxCell>
        <mxCell id="ymEb2g0kcDg-jAVKu9gT-72" style="edgeStyle=orthogonalEdgeStyle;rounded=0;orthogonalLoop=1;jettySize=auto;html=1;entryX=0;entryY=0.5;entryDx=0;entryDy=0;" edge="1" parent="1" source="ymEb2g0kcDg-jAVKu9gT-15" target="ymEb2g0kcDg-jAVKu9gT-47">
          <mxGeometry relative="1" as="geometry" />
        </mxCell>
        <mxCell id="ymEb2g0kcDg-jAVKu9gT-15" value="API GATEWAY" style="swimlane;startSize=0;fontColor=none;noLabel=1;dashed=1;dashPattern=12 12;" vertex="1" parent="1">
          <mxGeometry x="40" y="280" width="160" height="160" as="geometry" />
        </mxCell>
        <mxCell id="ymEb2g0kcDg-jAVKu9gT-3" value="API GATEWAY" style="rounded=1;whiteSpace=wrap;html=1;fillColor=#f5f5f5;fontColor=#333333;strokeColor=#666666;" vertex="1" parent="ymEb2g0kcDg-jAVKu9gT-15">
          <mxGeometry x="20" y="50" width="120" height="60" as="geometry" />
        </mxCell>
        <mxCell id="ymEb2g0kcDg-jAVKu9gT-30" value="&lt;b&gt;Api Gateway&lt;br&gt;&lt;/b&gt;" style="text;html=1;align=center;verticalAlign=middle;resizable=0;points=[];autosize=1;strokeColor=none;fillColor=none;" vertex="1" parent="ymEb2g0kcDg-jAVKu9gT-15">
          <mxGeometry x="35" y="130" width="90" height="30" as="geometry" />
        </mxCell>
        <mxCell id="ymEb2g0kcDg-jAVKu9gT-16" value="Identity Service" style="rounded=1;whiteSpace=wrap;html=1;" vertex="1" parent="1">
          <mxGeometry x="300" y="340" width="170" height="60" as="geometry" />
        </mxCell>
        <mxCell id="ymEb2g0kcDg-jAVKu9gT-17" value="IdentityDB" style="shape=cylinder3;whiteSpace=wrap;html=1;boundedLbl=1;backgroundOutline=1;size=15;fillColor=#dae8fc;strokeColor=#6c8ebf;" vertex="1" parent="1">
          <mxGeometry x="510" y="340" width="60" height="60" as="geometry" />
        </mxCell>
        <mxCell id="ymEb2g0kcDg-jAVKu9gT-19" value="&lt;div&gt;EventDB&amp;nbsp;&lt;/div&gt;&lt;div&gt;(RabitMQ)&lt;/div&gt;" style="shape=cylinder3;whiteSpace=wrap;html=1;boundedLbl=1;backgroundOutline=1;size=15;fillColor=#fff2cc;strokeColor=#d6b656;" vertex="1" parent="1">
          <mxGeometry x="770" y="260" width="70" height="320" as="geometry" />
        </mxCell>
        <mxCell id="ymEb2g0kcDg-jAVKu9gT-23" value="Event&amp;nbsp; Service" style="rounded=1;whiteSpace=wrap;html=1;" vertex="1" parent="1">
          <mxGeometry x="690" y="250" width="70" height="330" as="geometry" />
        </mxCell>
        <mxCell id="ymEb2g0kcDg-jAVKu9gT-60" style="rounded=0;orthogonalLoop=1;jettySize=auto;html=1;exitX=1;exitY=0.5;exitDx=0;exitDy=0;entryX=0.5;entryY=0;entryDx=0;entryDy=0;strokeColor=default;edgeStyle=orthogonalEdgeStyle;startArrow=classic;startFill=1;" edge="1" parent="1" source="ymEb2g0kcDg-jAVKu9gT-24" target="ymEb2g0kcDg-jAVKu9gT-58">
          <mxGeometry relative="1" as="geometry" />
        </mxCell>
        <mxCell id="ymEb2g0kcDg-jAVKu9gT-24" value="Post" style="swimlane;startSize=0;rounded=1;shadow=0;fontColor=none;labelBackgroundColor=none;noLabel=1;" vertex="1" parent="1">
          <mxGeometry x="275" y="12.5" width="345" height="105" as="geometry" />
        </mxCell>
        <mxCell id="ymEb2g0kcDg-jAVKu9gT-29" value="&lt;b&gt;Post Services&lt;br&gt;&lt;/b&gt;" style="text;html=1;align=center;verticalAlign=middle;resizable=0;points=[];autosize=1;strokeColor=none;fillColor=none;" vertex="1" parent="ymEb2g0kcDg-jAVKu9gT-24">
          <mxGeometry x="140" y="82.5" width="100" height="30" as="geometry" />
        </mxCell>
        <mxCell id="ymEb2g0kcDg-jAVKu9gT-4" value="Post Service" style="rounded=1;whiteSpace=wrap;html=1;" vertex="1" parent="ymEb2g0kcDg-jAVKu9gT-24">
          <mxGeometry x="25" y="22.5" width="170" height="60" as="geometry" />
        </mxCell>
        <mxCell id="ymEb2g0kcDg-jAVKu9gT-6" value="PostDB" style="shape=cylinder3;whiteSpace=wrap;html=1;boundedLbl=1;backgroundOutline=1;size=15;fillColor=#dae8fc;strokeColor=#6c8ebf;" vertex="1" parent="ymEb2g0kcDg-jAVKu9gT-24">
          <mxGeometry x="240" y="17.5" width="60" height="70" as="geometry" />
        </mxCell>
        <mxCell id="ymEb2g0kcDg-jAVKu9gT-32" value="" style="edgeStyle=orthogonalEdgeStyle;rounded=0;orthogonalLoop=1;jettySize=auto;html=1;" edge="1" parent="ymEb2g0kcDg-jAVKu9gT-24" source="ymEb2g0kcDg-jAVKu9gT-4" target="ymEb2g0kcDg-jAVKu9gT-6">
          <mxGeometry relative="1" as="geometry" />
        </mxCell>
        <mxCell id="ymEb2g0kcDg-jAVKu9gT-61" style="edgeStyle=orthogonalEdgeStyle;rounded=0;orthogonalLoop=1;jettySize=auto;html=1;entryX=-0.009;entryY=0.048;entryDx=0;entryDy=0;entryPerimeter=0;startArrow=classic;startFill=1;" edge="1" parent="1" source="ymEb2g0kcDg-jAVKu9gT-33" target="ymEb2g0kcDg-jAVKu9gT-58">
          <mxGeometry relative="1" as="geometry" />
        </mxCell>
        <mxCell id="ymEb2g0kcDg-jAVKu9gT-33" value="Post" style="swimlane;startSize=0;rounded=1;shadow=0;fontColor=none;labelBackgroundColor=none;noLabel=1;" vertex="1" parent="1">
          <mxGeometry x="275" y="175" width="340" height="112.5" as="geometry" />
        </mxCell>
        <mxCell id="ymEb2g0kcDg-jAVKu9gT-34" value="&lt;b&gt;Media Services&lt;br&gt;&lt;/b&gt;" style="text;html=1;align=center;verticalAlign=middle;resizable=0;points=[];autosize=1;strokeColor=none;fillColor=none;" vertex="1" parent="ymEb2g0kcDg-jAVKu9gT-33">
          <mxGeometry x="135" y="82.5" width="110" height="30" as="geometry" />
        </mxCell>
        <mxCell id="ymEb2g0kcDg-jAVKu9gT-1" value="Casandra" style="shape=cylinder3;whiteSpace=wrap;html=1;boundedLbl=1;backgroundOutline=1;size=15;fillColor=#e1d5e7;strokeColor=#9673a6;" vertex="1" parent="ymEb2g0kcDg-jAVKu9gT-33">
          <mxGeometry x="232.5" y="17.5" width="77.5" height="62.5" as="geometry" />
        </mxCell>
        <mxCell id="ymEb2g0kcDg-jAVKu9gT-5" value="Media Service" style="rounded=1;whiteSpace=wrap;html=1;" vertex="1" parent="ymEb2g0kcDg-jAVKu9gT-33">
          <mxGeometry x="25" y="18.75" width="170" height="60" as="geometry" />
        </mxCell>
        <mxCell id="ymEb2g0kcDg-jAVKu9gT-31" value="" style="edgeStyle=orthogonalEdgeStyle;rounded=0;orthogonalLoop=1;jettySize=auto;html=1;" edge="1" parent="ymEb2g0kcDg-jAVKu9gT-33" source="ymEb2g0kcDg-jAVKu9gT-5" target="ymEb2g0kcDg-jAVKu9gT-1">
          <mxGeometry relative="1" as="geometry" />
        </mxCell>
        <mxCell id="ymEb2g0kcDg-jAVKu9gT-65" value="" style="edgeStyle=orthogonalEdgeStyle;rounded=0;orthogonalLoop=1;jettySize=auto;html=1;startArrow=classic;startFill=1;" edge="1" parent="1" source="ymEb2g0kcDg-jAVKu9gT-38" target="ymEb2g0kcDg-jAVKu9gT-23">
          <mxGeometry relative="1" as="geometry" />
        </mxCell>
        <mxCell id="ymEb2g0kcDg-jAVKu9gT-38" value="Post" style="swimlane;startSize=0;rounded=1;shadow=0;fontColor=none;labelBackgroundColor=none;noLabel=1;" vertex="1" parent="1">
          <mxGeometry x="275" y="317.5" width="340" height="112.5" as="geometry" />
        </mxCell>
        <mxCell id="ymEb2g0kcDg-jAVKu9gT-39" value="&lt;b&gt;Identity&amp;nbsp; Services&lt;br&gt;&lt;/b&gt;" style="text;html=1;align=center;verticalAlign=middle;resizable=0;points=[];autosize=1;strokeColor=none;fillColor=none;" vertex="1" parent="ymEb2g0kcDg-jAVKu9gT-38">
          <mxGeometry x="130" y="82.5" width="120" height="30" as="geometry" />
        </mxCell>
        <mxCell id="ymEb2g0kcDg-jAVKu9gT-66" value="" style="edgeStyle=orthogonalEdgeStyle;rounded=0;orthogonalLoop=1;jettySize=auto;html=1;startArrow=classic;startFill=1;" edge="1" parent="1" source="ymEb2g0kcDg-jAVKu9gT-41" target="ymEb2g0kcDg-jAVKu9gT-23">
          <mxGeometry relative="1" as="geometry" />
        </mxCell>
        <mxCell id="ymEb2g0kcDg-jAVKu9gT-41" value="Post" style="swimlane;startSize=0;rounded=1;shadow=0;fontColor=none;labelBackgroundColor=none;noLabel=1;" vertex="1" parent="1">
          <mxGeometry x="275" y="460" width="340" height="112.5" as="geometry" />
        </mxCell>
        <mxCell id="ymEb2g0kcDg-jAVKu9gT-42" value="&lt;b&gt;User Service&lt;br&gt;&lt;/b&gt;" style="text;html=1;align=center;verticalAlign=middle;resizable=0;points=[];autosize=1;strokeColor=none;fillColor=none;" vertex="1" parent="ymEb2g0kcDg-jAVKu9gT-41">
          <mxGeometry x="140" y="82.5" width="100" height="30" as="geometry" />
        </mxCell>
        <mxCell id="ymEb2g0kcDg-jAVKu9gT-18" value="User Service" style="rounded=1;whiteSpace=wrap;html=1;" vertex="1" parent="ymEb2g0kcDg-jAVKu9gT-41">
          <mxGeometry x="20" y="26.25" width="170" height="60" as="geometry" />
        </mxCell>
        <mxCell id="ymEb2g0kcDg-jAVKu9gT-20" value="User DB" style="shape=cylinder3;whiteSpace=wrap;html=1;boundedLbl=1;backgroundOutline=1;size=15;fillColor=#dae8fc;strokeColor=#6c8ebf;" vertex="1" parent="ymEb2g0kcDg-jAVKu9gT-41">
          <mxGeometry x="235" y="26.25" width="60" height="60" as="geometry" />
        </mxCell>
        <mxCell id="ymEb2g0kcDg-jAVKu9gT-67" style="edgeStyle=orthogonalEdgeStyle;rounded=0;orthogonalLoop=1;jettySize=auto;html=1;entryX=0.5;entryY=1;entryDx=0;entryDy=0;startArrow=classic;startFill=1;" edge="1" parent="1" source="ymEb2g0kcDg-jAVKu9gT-47" target="ymEb2g0kcDg-jAVKu9gT-58">
          <mxGeometry relative="1" as="geometry" />
        </mxCell>
        <mxCell id="ymEb2g0kcDg-jAVKu9gT-47" value="Post" style="swimlane;startSize=0;rounded=1;shadow=0;fontColor=none;labelBackgroundColor=none;noLabel=1;" vertex="1" parent="1">
          <mxGeometry x="275" y="620" width="340" height="112.5" as="geometry" />
        </mxCell>
        <mxCell id="ymEb2g0kcDg-jAVKu9gT-48" value="&lt;b&gt;Payment Service&lt;br&gt;&lt;/b&gt;" style="text;html=1;align=center;verticalAlign=middle;resizable=0;points=[];autosize=1;strokeColor=none;fillColor=none;" vertex="1" parent="ymEb2g0kcDg-jAVKu9gT-47">
          <mxGeometry x="130" y="82.5" width="120" height="30" as="geometry" />
        </mxCell>
        <mxCell id="ymEb2g0kcDg-jAVKu9gT-21" value="Payment Service" style="rounded=1;whiteSpace=wrap;html=1;" vertex="1" parent="ymEb2g0kcDg-jAVKu9gT-47">
          <mxGeometry x="20" y="20" width="170" height="60" as="geometry" />
        </mxCell>
        <mxCell id="ymEb2g0kcDg-jAVKu9gT-22" value="Payment DB" style="shape=cylinder3;whiteSpace=wrap;html=1;boundedLbl=1;backgroundOutline=1;size=15;fillColor=#dae8fc;strokeColor=#6c8ebf;" vertex="1" parent="ymEb2g0kcDg-jAVKu9gT-47">
          <mxGeometry x="230" y="20" width="60" height="60" as="geometry" />
        </mxCell>
        <mxCell id="ymEb2g0kcDg-jAVKu9gT-58" value="Post" style="swimlane;startSize=0;rounded=1;shadow=0;fontColor=none;labelBackgroundColor=none;noLabel=1;dashed=1;" vertex="1" parent="1">
          <mxGeometry x="660" y="227.5" width="215" height="402.5" as="geometry" />
        </mxCell>
        <mxCell id="ymEb2g0kcDg-jAVKu9gT-59" value="&lt;b&gt;Event-Bus&lt;/b&gt;" style="text;html=1;align=center;verticalAlign=middle;resizable=0;points=[];autosize=1;strokeColor=none;fillColor=none;" vertex="1" parent="ymEb2g0kcDg-jAVKu9gT-58">
          <mxGeometry x="67.5" y="362.5" width="80" height="30" as="geometry" />
        </mxCell>
        <mxCell id="ymEb2g0kcDg-jAVKu9gT-73" value="&lt;b&gt;CAB SERVICES&lt;br&gt;&lt;/b&gt;" style="text;html=1;align=center;verticalAlign=middle;resizable=0;points=[];autosize=1;strokeColor=none;fillColor=none;" vertex="1" parent="1">
          <mxGeometry x="390" y="760" width="110" height="30" as="geometry" />
        </mxCell>
      </root>
    </mxGraphModel>
  </diagram>
</mxfile>
